<svg version="1.1" id="Capa_1" xmlns="http://www.w3.org/2000/svg" xmlns:xlink="http://www.w3.org/1999/xlink" x="0px" y="0px" viewBox="0 0 512 512" style="enable-background:new 0 0 512 512;" xml:space="preserve"><g><g><g><path d="M327.25,268.237c1.388,0.846,2.921,1.246,4.433,1.246c2.879,0,5.687-1.454,7.296-4.092 c2.45-4.021,1.179-9.275-2.846-11.729c-8.293-5.055-16.936-9.481-25.777-13.352c29.347-25.063,48.043-62.252,48.043-103.778 C358.4,61.25,297.15,0,221.867,0S85.333,61.25,85.333,136.533c0,41.521,18.692,78.706,48.034,103.769 C53.027,275.23,0,355.106,0,443.733v59.733C0,508.179,3.821,512,8.533,512s8.533-3.821,8.533-8.533v-59.733 c0-85.232,53.138-161.658,132.548-191.565c20.987,13.161,45.706,20.898,72.252,20.898c26.571,0,51.312-7.75,72.31-20.934 C305.591,256.443,316.709,261.811,327.25,268.237z M102.4,136.533c0-65.875,53.592-119.467,119.467-119.467 s119.467,53.592,119.467,119.467S287.742,256,221.867,256S102.4,202.408,102.4,136.533z"></path><path d="M392.533,273.067c-65.875,0-119.467,53.592-119.467,119.467S326.658,512,392.533,512S512,458.408,512,392.533 S458.408,273.067,392.533,273.067z M392.533,494.933c-56.462,0-102.4-45.938-102.4-102.4c0-56.462,45.938-102.4,102.4-102.4 c56.463,0,102.4,45.938,102.4,102.4C494.933,448.996,448.996,494.933,392.533,494.933z"></path><path d="M398.569,318.236c-0.786-0.788-1.731-1.411-2.775-1.844c-2.086-0.863-4.435-0.863-6.522,0 c-1.044,0.433-1.989,1.056-2.775,1.844L335.3,369.433c-3.333,3.333-3.333,8.733,0,12.067c3.333,3.333,8.733,3.333,12.067,0 L384,344.867V460.8c0,4.713,3.821,8.533,8.533,8.533c4.713,0,8.533-3.821,8.533-8.533V344.867L437.7,381.5 c1.667,1.667,3.85,2.5,6.033,2.5c2.183,0,4.367-0.833,6.033-2.5c3.333-3.333,3.333-8.733,0-12.067L398.569,318.236z"></path></g></g></g></svg>